<svg height="449" viewBox="0 0 430 449" width="430" xmlns="http://www.w3.org/2000/svg"><g fill="none" fill-rule="evenodd" transform="translate(6.488077 6.083977)"><path d="m254.578794 10.4360326c16.22668 9.3066742 27.280022 25.0133534 36.506696 40.8400327 10.133341 18.2133479 18.200015 37.4933633 25.786687 56.8800457 30.773358 80.160064 60.813382 160.600128 91.200073 240.906859 4.400004 11.706676 9.066674 23.746686 8.760007 36.480029-.013333 15.973346-7.986673 32.426693-22.080017 40.546699-9.106674 5.453338-19.386683 9.506675-30.160025 9.333341-80.773398 1.306668-161.573462.866668-242.360193.466667-24.0400196-.2-48.0800388-.44-72.1200581-.960001-24.3600194-.2-47.06670427-20.186682-49.78670644-44.520035-.94666743-7.333339.25333353-14.746679 2.56000204-21.706684 7.3733392-22.773352 15.9866795-45.120036 24.3066861-67.560054 20.0800161-53.733377 39.6666984-107.65342 59.9067146-161.333463 11.6533426-29.640023 21.6533508-60.1600477 37.4533628-87.9467366 7.053339-12.3866765 15.493346-24.226686 26.413355-33.5200268 11.520009-9.8000078 26.080021-15.70667919 41.066699-17.40001388 21.053351-2.13333503 43.746702-1.30666771 62.546717 9.49334088z" fill="#951619" stroke="#c75c2f" stroke-width="12"/><path d="m143.311516 190.916023c7.261836 3.043265 11.329892 10.147191 15.460396 16.421135.321162-.339132.981329-1.017397 1.311413-1.347604 1.944816.267736 3.87179.713962 5.772 1.231585 4.210795-5.908039 9.518894-12.762077 17.101893-13.788398-1.855605 7.541227-8.448353 12.88702-14.702097 16.947681.579876 1.856302.999172 3.784001.660167 5.747397 8.43051 8.772813 18.065379 16.492531 28.824317 22.222079 6.904989-1.909849 14.247116-2.311453 20.875549.999547 10.62512-5.943737 20.759575-12.994115 29.109794-21.927569-.008921-2.070491-.017842-4.149906-.035684-6.211472.267635-.276661.820748-.838906 1.088383-1.115567-6.111005-4.167755-14.202511-8.933454-15.56745-16.644247 7.841712 1.820604 13.239023 8.15702 18.511438 13.7527 2.310584-1.097717 4.763907-.937076 7.092334.026773 5.379469-4.92634 9.956031-12.13736 17.788823-13.074435-1.730708 7.496604-8.992544 12.298001-14.942968 16.519304.356847.401604 1.052698 1.204811 1.409545 1.597491-.205187 1.633188-.419295 3.275302-.713694 4.890642 6.369719 4.069585 12.998153 8.924529 16.156248 16.01953-8.261008-.294509-13.640476-7.657246-19.046708-12.994115-.410374.312359-1.231122.937076-1.641496 1.249434-1.454152-.026773-2.899382-.035698-4.344613-.035698-8.840884 8.647869-17.753138 17.536701-23.623271 28.558495 2.114318 6.952208 2.649589 14.422039.026763 21.374248 5.343784 10.798681 13.265788 20.187286 21.812273 28.603117 1.650418.008925 3.300835.026774 4.960174.071396 2.81017 2.311453 3.737972-1.865226 5.540049-3.373472 4.192953-4.158831 8.109348-9.861605 14.523673-10.370303-2.569298 7.425208-8.475116 13.056587-14.737781 17.483153.008921 2.507793.008921 5.02451.008921 7.541228 6.218059 3.659057 12.025744 8.746039 14.737781 15.609002-7.511629-.642566-13.640476-6.827265-17.753138-12.762077-1.90021.508698-3.818263.928151-5.772 1.088792-.767221-.410528-1.543363-.758585-2.346269-1.053094-4.647932 5.756321-9.527815 12.199832-16.762888 14.743322.53527-8.130246 8.19856-13.270775 13.997324-17.991851-.321163-.437302-.972409-1.329755-1.302492-1.775981.026764-1.43685.071369-2.85585.107054-4.27485-8.475116-8.478303-17.351685-16.795965-28.003568-22.489814-6.931753 3.50734-15.55853 3.40917-22.552731.116018-9.840056 5.952662-19.296502 12.842398-26.977633 21.454569-.446059 2.391774-.276557 4.872793-1.088384 7.21102 5.887976 4.042812 13.354999 8.701417 14.639649 16.242644-7.627605-1.427925-12.587778-7.978529-17.69069-13.226153-2.613905 1.383302-5.522208.954925-8.162876-.053547-4.567641 5.515359-10.107691 12.208756-17.708532 12.779926 2.319505-7.068227 8.724909-11.914247 14.693175-15.876738-.142739-2.552415-.098133-5.12268.401453-7.639397-6.342955-4.060661-12.810807-9.210114-15.933219-16.224795 8.261009.107095 13.925955 7.924983 18.82368 13.699153 2.096476-.687189 4.282164-.981698 6.494615-1.062019 8.394826-8.424756 16.183012-17.706266 21.437584-28.460325-2.72988-7.58585-2.2749-15.787492 1.14191-23.078833-6.111005-9.906228-13.59587-18.87538-22.062066-26.844985-1.659338-.017849-3.318677-.035698-4.969094-.071396-.731536-.339132-1.471994-.615792-2.230294-.84783-4.514114 5.863416-9.670554 11.923171-16.843178 14.50236-.178424-.508698-.52635-1.51717-.704773-2.025868 3.372204-6.273944 8.698145-11.262756 14.443382-15.36804-.187344-2.784453-.285477-5.658151.918881-8.25519-5.263493-4.685378-10.045243-10.022246-12.676989-16.662096.258714-.446227.767221-1.329755 1.025935-1.775982m15.200407 22.180758c.333334.454811.990991 1.364432 1.324325 1.819242.666666-.017492 2.009009-.043731 2.675675-.052478-.027027-.74344-.081081-2.212828-.108108-2.947522-1.315315.367347-2.612612.752187-3.891892 1.180758m95.592593-1.180758c-.398148.438597-1.194444 1.31579-1.592593 1.754386 1.277778.438597 2.564815.85965 3.87963 1.245614.027778-.736842.092593-2.22807.12037-2.973684-.601851-.008772-1.805555-.017544-2.407407-.026316m-94.592593 95.683761c1.308642.495727 2.641976.931624 4 1.316239-.337448-1.350427-.699588-2.68376-1.119341-4-.979424.880342-1.942387 1.769231-2.880659 2.683761m93.10959-1.683761c-.027398.734514-.082192 2.21239-.10959 2.955753.584475.008849 1.762558.035398 2.347032.044247.420092-.433628 1.24201-1.309734 1.652968-1.752212-1.296803-.460177-2.584474-.867257-3.89041-1.247788z" fill="#c75c2f" fill-rule="nonzero"/></g></svg>