<svg height="784" viewBox="0 0 750 784" width="750" xmlns="http://www.w3.org/2000/svg" xmlns:xlink="http://www.w3.org/1999/xlink"><filter id="a" height="103.1%" width="103.3%" x="-1.6%" y="-1.6%"><feOffset dx="2" dy="2" in="SourceAlpha" result="shadowOffsetOuter1"/><feGaussianBlur in="shadowOffsetOuter1" result="shadowBlurOuter1" stdDeviation="2"/><feColorMatrix in="shadowBlurOuter1" result="shadowMatrixOuter1" type="matrix" values="0 0 0 0 0 0 0 0 0 0 0 0 0 0 0 0 0 0 0.5 0"/><feMerge><feMergeNode in="shadowMatrixOuter1"/><feMergeNode in="SourceGraphic"/></feMerge></filter><g fill="#b55415" filter="url(#a)" transform="translate(9 9)"><path d="m725.486725 169.015207-354.5137-167.90061716c-3.143025-1.48711718-6.803025-1.48711718-9.944525 0l-354.515225 167.90061716c-3.9528 1.871613-6.464475 5.798859-6.464475 10.104617v407.758856c0 4.305757 2.511675 8.233004 6.464475 10.104617l354.5137 167.900617c1.57075.743559 3.27265 1.116086 4.973025 1.116086s3.40075-.372527 4.973025-1.116086l354.5137-167.900617c3.9528-1.871613 6.464475-5.79886 6.464475-10.104617v-407.75736c0-4.30875-2.5132-8.233004-6.464475-10.106113zm-359.486725-145.3350351 328.205925 155.4396521-95.140175 45.059352c-.602375-.450324-1.2383-.866238-1.93675-1.196875l-325.976375-154.3819143zm-120.677825 57.6070898 327.7286 155.2137423-67.122875 31.790496-327.592875-155.150906zm335.3963 176.5001643v117.512179l-62.697325 29.694469v-117.512179zm128.357725 322.050636-331.6387 157.062915v-382.838422l79.106325-37.46518c5.68825-2.694465 8.07335-9.401453 5.326825-14.983379-2.746525-5.578934-9.5831-7.921816-15.272875-5.225855l-80.597775 38.172832-31.7139-15.020782c-5.689775-2.697457-12.52635-.354574-15.272875 5.225856s-.361425 12.288914 5.326825 14.983379l30.22245 14.313129v382.838422l-331.6387-157.065907v-382.838422l252.54 119.605215c1.602775.760016 3.29705 1.119078 4.963875 1.119078 4.2517 0 8.33565-2.336898 10.307475-6.344933 2.746525-5.58043.361425-12.288914-5.326825-14.983379l-247.61425-117.272805 113.620125-53.8115 343.57335 162.719645c.050325.06882.10675.13016.1586.197484v134.646942c0 3.861417 2.023675 7.450546 5.357325 9.504683 1.85135 1.140024 3.963475 1.71602 6.0817 1.71602 1.6958 0 3.396175-.369536 4.9715-1.116086l85.572325-40.527684c3.9528-1.871613 6.464475-5.797363 6.464475-10.104617v-135.389004l105.482725-49.957562z"/><path d="m117.31215 536.318191-52.025375-24.639168c-5.6913-2.697457-12.52635-.354574-15.272875 5.225856s-.361425 12.288914 5.326825 14.983379l52.025375 24.639168c1.602775.760015 3.29705 1.119078 4.963875 1.119078 4.2517 0 8.33565-2.336899 10.307475-6.344934 2.74805-5.581925.36295-12.287418-5.3253-14.983379z"/><path d="m165.192575 505.742523-99.834125-47.282546c-5.689775-2.694465-12.52635-.354575-15.272875 5.227351-2.745 5.58043-.3599 12.288914 5.32835 14.983379l99.834125 47.282547c1.602775.758519 3.29705 1.119078 4.963875 1.119078 4.2517 0 8.33565-2.336898 10.307475-6.344934 2.746525-5.583421.361425-12.291906-5.326825-14.984875z"/></g></svg>