<svg height="148" viewBox="0 0 986 148" width="986" xmlns="http://www.w3.org/2000/svg" xmlns:xlink="http://www.w3.org/1999/xlink"><filter id="a" height="125.8%" width="103.3%" x="-1.7%" y="-12.9%"><feOffset dx="-2" dy="4" in="SourceAlpha" result="shadowOffsetOuter1"/><feGaussianBlur in="shadowOffsetOuter1" result="shadowBlurOuter1" stdDeviation="2"/><feColorMatrix in="shadowBlurOuter1" result="shadowMatrixOuter1" type="matrix" values="0 0 0 0 0 0 0 0 0 0 0 0 0 0 0 0 0 0 0.5 0"/><feMerge><feMergeNode in="shadowMatrixOuter1"/><feMergeNode in="SourceGraphic"/></feMerge></filter><g fill="none" fill-rule="evenodd" filter="url(#a)" transform="translate(12 12)"><path d="m852.570194 12.4072779 52.084693 75.1232578-83.123251 21.2887383z" fill="#8ac33b" transform="matrix(.92050485 -.39073113 .39073113 .92050485 44.928232 342.055866)"/><path d="m908.071143 25.8511112 53 1v7.427564l-32.615393 5.8523606-.444299 13.6515617 32.559692.5685137 1 10-34.649951 8.8321291-1.992718 9.1969063 36.142669 1.9388767.5 31.0320877-60 3z" fill="#59b8dd"/><path d="m756.255792 33.9192885 67.410832 3.0635822 2.219869 71.8000633-68.435356-5.059841z" fill="#f8b912" transform="matrix(.77714596 .62932039 -.62932039 .77714596 221.196108 -481.936318)"/><path d="m690.071143 19.8511112 49.5 21.5-52 35 60 17-38 29.9999998-55-46.9999998z" fill="#fb6e56"/><path d="m510.071143 21.8511112 81.86 19.5-32.36 26 32.36 27.3046067-2.540492 23.6953931-39.929624-27.8582987-1.889884 28.8582987-30.5 1.5zm30.60578 17.5v16.5555555l15.89422-8.5555555z" fill="#59b8dd"/><path d="m452.071143 25.8511112 53 1v7.427564l-32.615393 5.8523606-.444299 13.6515617 32.559692.5685137 1 10-34.649951 8.8321291-1.992718 9.1969063 36.142669 1.9388767.5 31.0320877-60 3z" fill="#8ac33b"/><path d="m285.571143 21.3511112 87 18.8612537-45.405364 49.186099-2.594636 33.9526471-30.5.5zm30 23-1 21 21-13z" fill="#fb6e56"/><path d="m368.071143 28.8511112v92.0449818l24.142003 2.197026.357997-53.7420078 18 1 4.870682 51.9999998 26.668923-1.455018-8.219377-99.2949818-18.86569-.25-2.771456 31.5685414-21.270116-2.9674388-3.412966-21.6011026z" fill="#f8b912"/><path d="m253.571143 22.3511112 28 1-1 96.9999998-25.425897 2z" fill="#59b8dd"/><path d="m193.071143 19.8511112 49.5 21.5-52 35 60 17-38 29.9999998-55-46.9999998z" fill="#8ac33b"/><path d="m46.5701937 12.4072779 52.0846937 75.1232578-83.1232509 21.2887383z" fill="#fb6e56" transform="matrix(.92050485 -.39073113 .39073113 .92050485 -19.144857 27.126576)"/><path d="m102.071143 25.8511112 53 1v7.427564l-32.615393 5.8523606-.444299 13.6515617 32.559692.5685137 1 10-34.649951 8.8321291-1.992718 9.1969063 36.142669 1.9388767.5 31.0320877-60.0000004 3z" fill="#f8b912"/></g></svg>