<svg height="217" viewBox="0 0 217 217" width="217" xmlns="http://www.w3.org/2000/svg" xmlns:xlink="http://www.w3.org/1999/xlink"><filter id="a" height="121.1%" width="121.1%" x="-10.6%" y="-10.6%"><feOffset dx="-2" dy="4" in="SourceAlpha" result="shadowOffsetOuter1"/><feGaussianBlur in="shadowOffsetOuter1" result="shadowBlurOuter1" stdDeviation="2"/><feColorMatrix in="shadowBlurOuter1" result="shadowMatrixOuter1" type="matrix" values="0 0 0 0 0 0 0 0 0 0 0 0 0 0 0 0 0 0 0.5 0"/><feMerge><feMergeNode in="shadowMatrixOuter1"/><feMergeNode in="SourceGraphic"/></feMerge></filter><g fill="none" filter="url(#a)" stroke="#d8a657" stroke-width="10" transform="translate(11 5)"><path d="m193.654456 86.5554045c-.004554-.0045545-.00911-.0091093-.013665-.0136642l-81.184524-81.17321003c-3.460444-3.46160888-8.061209-5.36853027-12.9550266-5.36853027-4.8938169 0-9.4945823 1.90540323-12.9565441 5.36701212l-81.1420091 81.13221718c-.02733147.0273287-.05466294.0561752-.08199402.0835039-7.1061323 7.1464005-7.09398506 18.7412718.03492339 25.8694538 3.25697721 3.258163 7.55861663 5.145347 12.15786363 5.342719.1867634.01822.3750456.027329.564846.027329h3.2357198v59.738564c0 11.82109 9.6190915 21.439201 21.4444245 21.439201h31.7619821c3.2190172 0 5.8306727-2.609871 5.8306727-5.830078v-46.834961c0-5.39434 4.3881883-9.782082 9.7830788-9.782082h18.7340729c5.394891 0 9.783079 4.387742 9.783079 9.782082v46.834961c0 3.220207 2.610137 5.830078 5.830673 5.830078h31.761982c11.825333 0 21.444424-9.618111 21.444424-21.439201v-59.738564h3.000367c4.892299 0 9.493064-1.905403 12.956544-5.367012 7.136501-7.140327 7.139537-18.7549361.00911-25.8998185z"/></g></svg>