<svg height="917" viewBox="0 0 620 917" width="620" xmlns="http://www.w3.org/2000/svg" xmlns:xlink="http://www.w3.org/1999/xlink"><filter id="a" height="103.6%" width="105.4%" x="-2.7%" y="-1.8%"><feOffset dx="-2" dy="4" in="SourceAlpha" result="shadowOffsetOuter1"/><feGaussianBlur in="shadowOffsetOuter1" result="shadowBlurOuter1" stdDeviation="2"/><feColorMatrix in="shadowBlurOuter1" result="shadowMatrixOuter1" type="matrix" values="0 0 0 0 0 0 0 0 0 0 0 0 0 0 0 0 0 0 0.5 0"/><feMerge><feMergeNode in="shadowMatrixOuter1"/><feMergeNode in="SourceGraphic"/></feMerge></filter><g fill="#b55415" filter="url(#a)" transform="translate(12 12.5)"><path d="m519.587912 225.703434h-70.032027v-112.94231c3.903323-3.484369 6.32794-8.313703 6.32794-13.6482707v-38.6155105c0-33.3575989-30.07026-60.4973428-67.034074-60.4973428h-181.703362c-36.961884 0-67.034074 27.1397439-67.034074 60.499085v38.6137683c0 5.3345677 2.426546 10.1656447 6.329869 13.6500127v112.94231h-70.033957c-42.131567 0-76.408227 30.934221-76.408227 68.957389v477.685973c0 29.813997 21.0764009 55.263822 50.4864546 64.864999v16.944482c0 20.866139 18.8100797 37.841981 41.9308026 37.841981h17.3796338c23.120723 0 41.930802-16.975842 41.930802-37.841981v-12.852092h292.542683v12.852092c0 20.866139 18.81008 37.841981 41.930803 37.841981h17.381564c23.120723 0 41.930802-16.975842 41.930802-37.841981v-16.944482c29.410054-9.602919 50.486455-35.052744 50.486455-64.864999v-477.687715c0-38.023168-34.280521-68.957389-76.412088-68.957389zm-119.028192 0v-107.381259h20.039762v107.381259zm-176.166898-112.94231c3.903324-3.484369 6.32794-8.313703 6.32794-13.6482707v-17.3382161h134.552685v17.3382161c0 5.3345677 2.424616 10.1639017 6.327939 13.6482707v112.94231h-147.210494v-112.94231zm-55.326034-52.262039c0-18.9497365 17.084278-34.3663235 38.079601-34.3663235h181.703362c20.995323 0 38.07767 15.416587 38.07767 34.3645813v31.6920709h-32.697571v-16.9601622c0-10.7997992-9.735142-19.5873758-21.701859-19.5873758h-149.059843c-11.966716 0-21.70379 8.7858344-21.70379 19.5873758v16.9601622h-32.69757zm6.329869 57.82309h20.037832v107.381259h-20.037832zm-52.627298 735.834102c0 6.456534-5.820237 11.709219-12.974399 11.709219h-17.3796332c-7.1541621 0-12.9743992-5.252685-12.9743992-11.709219v-12.852092h43.3284314zm380.811453 11.709219h-17.381563c-7.154163 0-12.9744-5.252685-12.9744-11.709219v-12.852092h43.328433v12.852092c.00193 6.456534-5.818308 11.709219-12.97247 11.709219zm63.460854-93.5187c0 23.613563-21.286817 42.82637-47.453754 42.82637h-443.1816154c-26.1650062 0-47.4518236-19.211064-47.4518236-42.82637v-477.685973c0-23.613563 21.2868174-42.824627 47.4518236-42.824627h443.1816154c26.166937 0 47.453754 19.211064 47.453754 42.824627z"/><path d="m135.823129 310.367123c-27.199103 0-49.3287979 19.897356-49.3287979 44.356629v254.237979c0 7.223036 6.5122701 13.078892 14.5449749 13.078892 8.032705 0 14.544975-5.855856 14.544975-13.078892v-254.239723c0-10.034126 9.078004-18.198843 20.238848-18.198843s20.238848 8.162973 20.238848 18.198843v371.9515c0 10.034127-9.078004 18.198844-20.238848 18.198844s-20.238848-8.162973-20.238848-18.198844v-56.533949c0-7.223037-6.51227-13.078893-14.544975-13.078893-8.0327048 0-14.5449749 5.855856-14.5449749 13.078893v56.533949c0 24.45753 22.1277559 44.356629 49.3287979 44.356629 27.201043 0 49.328798-19.897355 49.328798-44.356629v-371.9515c-.001939-24.457529-22.129694-44.354885-49.328798-44.354885z"/><path d="m299.351474 310.367123c-27.199103 0-49.328798 19.89728-49.328798 44.356461v371.950092c0 24.457437 22.127755 44.356461 49.328798 44.356461s49.328798-19.89728 49.328798-44.356461v-371.951836c-.001939-24.457437-22.129695-44.354717-49.328798-44.354717zm20.236909 416.306553c0 10.034089-9.079944 18.198775-20.238848 18.198775-11.158905 0-20.238848-8.162942-20.238848-18.198775v-371.951836c0-10.034088 9.078003-18.198774 20.238848-18.198774 11.158904 0 20.238848 8.162942 20.238848 18.198774z"/><path d="m457.473923 310.367123c-27.199104 0-49.328798 19.89728-49.328798 44.356461v51.671893c0 7.22301 6.510331 13.078844 14.544975 13.078844s14.544975-5.855834 14.544975-13.078844v-51.671893c0-10.034089 9.079943-18.198774 20.238848-18.198774s20.238848 8.162942 20.238848 18.198774v371.950092c0 10.034089-9.079943 18.198775-20.238848 18.198775s-20.238848-8.162942-20.238848-18.198775v-259.098858c0-7.223009-6.510331-13.078843-14.544975-13.078843s-14.544975 5.855834-14.544975 13.078843v259.098858c0 24.457437 22.127755 44.356461 49.328798 44.356461s49.328798-19.89728 49.328798-44.356461v-371.951836c-.001939-24.457437-22.129695-44.354717-49.328798-44.354717z"/></g></svg>