<svg height="114" viewBox="0 0 192 114" width="192" xmlns="http://www.w3.org/2000/svg" xmlns:xlink="http://www.w3.org/1999/xlink"><filter id="a" height="103.5%" width="102.1%" x="-1%" y="-1.8%"><feGaussianBlur in="SourceAlpha" result="shadowBlurInner1" stdDeviation="1.5"/><feOffset dx="0" dy="1" in="shadowBlurInner1" result="shadowOffsetInner1"/><feComposite in="shadowOffsetInner1" in2="SourceAlpha" k2="-1" k3="1" operator="arithmetic" result="shadowInnerInner1"/><feColorMatrix in="shadowInnerInner1" type="matrix" values="0 0 0 0 0 0 0 0 0 0 0 0 0 0 0 0 0 0 0.5 0"/></filter><path d="m42 90c3.3085847 0 6 2.6914153 6 6s-2.6914153 6-6 6-6-2.6914153-6-6 2.6914153-6 6-6zm120 0c3.308585 0 6 2.6914153 6 6s-2.691415 6-6 6-6-2.6914153-6-6 2.691415-6 6-6zm23.965875-37.0443109-21.654-7.2279384-10.120875-27.8700714c-1.263375-3.4791588-4.596-5.816748-8.293125-5.816748h-26.043v-6.21441985c0-3.21291776-2.61-5.82651145-5.8185-5.82651145h-108.217875c-3.2085 0-5.8185 2.61396921-5.8185 5.82688697v81.27525343c0 3.2129178 2.61 5.8265115 5.8185 5.8265115h18.52275c-.189 1.0401802-.292875 2.1100263-.292875 3.2039054 0 9.8520467 8.004375 17.8674427 17.842875 17.8674427s17.842875-8.015396 17.842875-17.8674427c0-1.0942546-.103875-2.1637252-.292875-3.2039054h85.142625c-.189 1.0401802-.292875 2.1100263-.292875 3.2039054 0 9.8520467 8.004375 17.8674427 17.842875 17.8674427s17.842875-8.015396 17.842875-17.8674427c0-1.3916636-.165-2.7450244-.466875-4.045813l5.951625-2.9797221c4.03275-2.0199024 6.5385-6.0803605 6.5385-10.5966955v-17.1712354c0-3.8092378-2.42475-7.1783703-6.034125-8.3834022zm-180.340875-47.12880213c0-.10702216.086625-.19414195.1935-.19414195h108.217875c.106875 0 .1935.08674428.1935.19376643v60.39767185h-108.604875zm24.048 90.30567033c0-6.746151 5.481-12.2346977 12.217875-12.2346977s12.217875 5.4885467 12.217875 12.2346977c.000375 6.7461507-5.480625 12.2346977-12.217875 12.2346977-6.736875 0-12.217875-5.488547-12.217875-12.2346977zm84.556875-8.8370259h-56.840625c-3.076125-5.3882839-8.86875-9.0304169-15.498375-9.0304169s-12.421875 3.642133-15.498 9.0304169h-20.574375c-.106875 0-.1935-.0867443-.1935-.1937665v-15.2448366h108.604875zm38.281875-57.5809238 5.60625 15.4386031h-6.039l-5.60625-15.4386031zm-32.656875-12.0409313h26.043c1.340625 0 2.548875.8475404 3.007125 2.1088997l1.561125 4.298911h-30.61125zm0 12.0409313h20.6325l5.60625 15.4386031h-26.23875zm42.27825 54.183252c6.736875 0 12.217875 5.4885467 12.217875 12.2346977 0 6.7461507-5.481 12.2346977-12.217875 12.2346977s-12.217875-5.488547-12.217875-12.2346977c0-6.746151 5.481-12.2346977 12.217875-12.2346977zm-.456375-33.1122794 22.5105 7.5137063c1.30875.4367255 2.18775 1.6582802 2.18775 3.0394292v4.885092h-3.1995c-1.55325 0-2.8125 1.2609839-2.8125 2.8163725 0 1.5553887 1.25925 2.8163726 2.8125 2.8163726h3.1995v6.6533984c0 2.3695081-1.314375 4.4990612-3.430125 5.5587683l-5.567625 2.7874577c-3.135-5.1472024-8.79525-8.5910627-15.244125-8.5910627-6.629625 0-12.421875 3.642133-15.498 9.0304169h-26.78025v-15.4386031h51.296625c1.55325 0 2.8125-1.2609839 2.8125-2.8163725 0-1.5553887-1.25925-2.8163725-2.8125-2.8163725h-51.296625v-15.4386031z" filter="url(#a)"/></svg>