<svg height="240" viewBox="0 0 217 240" width="217" xmlns="http://www.w3.org/2000/svg" xmlns:xlink="http://www.w3.org/1999/xlink"><filter id="a" height="118.9%" width="121.1%" x="-10.6%" y="-9.5%"><feOffset dx="-2" dy="4" in="SourceAlpha" result="shadowOffsetOuter1"/><feGaussianBlur in="shadowOffsetOuter1" result="shadowBlurOuter1" stdDeviation="2"/><feColorMatrix in="shadowBlurOuter1" result="shadowMatrixOuter1" type="matrix" values="0 0 0 0 0 0 0 0 0 0 0 0 0 0 0 0 0 0 0.5 0"/><feMerge><feMergeNode in="shadowMatrixOuter1"/><feMergeNode in="SourceGraphic"/></feMerge></filter><g fill="none" filter="url(#a)" stroke="#d8a657" stroke-width="10" transform="translate(11 5)"><path d="m55.9091985 119.155962c2.5203562-.505425 5.2930375.252471 7.3097085 1.768745 10.5865575 7.83336 23.1893035 11.876275 36.2966997 11.876275 13.1073963 0 25.7101423-4.042915 36.2966993-11.876275 2.016671-1.516274 4.789353-2.021215 7.309709-1.768745 20.16478 2.779595 38.060563 14.150444 49.655456 31.333438 2.268514 3.285019 4.284702 6.822509 5.797205 10.612954.756011 1.515791.504168 3.285019-.755528 4.801294-2.016188 3.53749-4.285184 6.822509-6.80554 10.107529-3.529174 4.80081-7.562034 9.09668-11.594893 13.139595-3.529174 3.53749-7.562034 7.075464-11.594893 10.107529-19.912455 14.90834-43.858251 22.741699-68.5600579 22.741699-24.7018068 0-48.6476031-7.832876-68.5600576-22.741699-4.0333419-3.28502-8.0662013-6.570039-11.594893-10.107529-4.2851845-4.042915-8.0662013-8.338301-11.59489299-13.139595-2.26851358-3.032065-4.7888698-6.570039-6.80554074-10.107529-.75601038-1.516275-1.00785301-3.28502-.25184264-4.801294 1.51202075-3.53749 3.52869169-7.327935 5.79720527-10.612954 11.3425679-17.182994 29.4906765-28.553843 49.6554561-31.333438zm43.5908015-119.155962c31.637712 0 57.5 25.862288 57.5 57.5s-25.862288 57.5-57.5 57.5-57.5-25.862288-57.5-57.5 25.862288-57.5 57.5-57.5z"/></g></svg>